<?xml version="1.0" encoding="utf-8"?>
<!-- Generator: Adobe Illustrator 26.4.1, SVG Export Plug-In . SVG Version: 6.00 Build 0)  -->
<svg version="1.0" id="katman_1" xmlns="http://www.w3.org/2000/svg" xmlns:xlink="http://www.w3.org/1999/xlink" x="0px" y="0px"
	 viewBox="0 0 841.89 595.28" style="enable-background:new 0 0 841.89 595.28;" xml:space="preserve">
<style type="text/css">
	.st0{fill:#1D1E1B;}
</style>
<g>
	<path class="st0" d="M255.97,297.99c0,11.34,9.2,20.54,20.54,20.54h46.95l14.08-41.08h-61.03
		C265.16,277.45,255.97,286.65,255.97,297.99z"/>
	<path class="st0" d="M666.45,196.43c-25.81-25.8-61.43-41.75-100.8-41.75H436.79L407.28,231l-51.21,132.47l-0.04,0.11h-78.69
		c-36.58,0-66.24-29.65-66.24-66.24c0-18.29,7.42-34.85,19.4-46.83c11.98-11.98,28.54-19.4,46.83-19.4h79.57l0.46,0.17l0.04,0.01
		l0.07-0.18l29.49-76.32l29.96-77.57l-100,77.39l-0.1,0.18h-41.06c-78.73,0-142.55,63.81-142.55,142.55
		c0,39.36,15.95,75.01,41.75,100.8c25.81,25.8,61.43,41.75,100.81,41.75h128.85l29.51-76.32l51.21-132.47l0.04-0.11h78.69
		c36.58,0,66.24,29.65,66.24,66.24c0,18.29-7.42,34.85-19.4,46.83s-28.54,19.4-46.83,19.4h-80.09l-29.51,76.32l-29.99,77.57
		l100-77.39l0.1-0.18h41.06c78.73,0,142.55-63.81,142.55-142.55C708.2,257.88,692.25,222.22,666.45,196.43z"/>
	<path class="st0" d="M585.45,296.58L585.45,296.58c0-11.34-9.2-20.54-20.54-20.54h-46.95l-14.08,41.08h61.03
		C576.25,317.12,585.45,307.93,585.45,296.58z"/>
</g>
</svg>
